<svg width="164" height="164" viewBox="0 0 164 164" fill="none" xmlns="http://www.w3.org/2000/svg">
<path d="M148.774 81.9003C148.774 118.832 118.835 148.772 81.9029 148.772C44.9707 148.772 15.0312 118.832 15.0312 81.9003C15.0312 44.9681 44.9707 15.0287 81.9029 15.0287C118.835 15.0287 148.774 44.9681 148.774 81.9003ZM28.2828 81.9003C28.2828 111.514 52.2893 135.52 81.9029 135.52C111.516 135.52 135.523 111.514 135.523 81.9003C135.523 52.2867 111.516 28.2802 81.9029 28.2802C52.2893 28.2802 28.2828 52.2867 28.2828 81.9003Z" fill="#EDEBF0"/>
<path d="M29.4861 110.628C26.0471 112.513 24.7573 116.855 26.996 120.075C32.6731 128.24 40.1187 135.062 48.8125 140.012C59.57 146.137 71.8165 149.156 84.1883 148.733C96.5601 148.309 108.572 144.46 118.885 137.614C129.198 130.767 137.409 121.193 142.603 109.956C147.796 98.7187 149.768 86.2607 148.3 73.969C146.832 61.6774 141.981 50.0345 134.287 40.337C126.592 30.6395 116.358 23.268 104.722 19.0434C95.3179 15.6293 85.2974 14.3788 75.3997 15.3456C71.4966 15.7268 69.0249 19.523 69.8177 23.3638C70.6105 27.2045 74.3707 29.6242 78.2831 29.3549C85.5876 28.852 92.9441 29.8761 99.8752 32.3925C109.04 35.7199 117.101 41.5259 123.161 49.1639C129.221 56.8019 133.042 65.9722 134.199 75.6534C135.355 85.3347 133.802 95.1469 129.711 103.997C125.621 112.848 119.154 120.389 111.031 125.782C102.907 131.174 93.4469 134.206 83.7025 134.54C73.9581 134.873 64.3124 132.495 55.8395 127.671C49.4317 124.022 43.8849 119.083 39.5347 113.193C37.2047 110.039 32.9251 108.743 29.4861 110.628Z" fill="url(#paint0_linear_575_15141)"/>
<path d="M120.982 81.9001C120.982 103.484 103.485 120.981 81.9011 120.981C60.3174 120.981 42.8203 103.484 42.8203 81.9001C42.8203 60.3164 60.3174 42.8193 81.9011 42.8193C103.485 42.8193 120.982 60.3164 120.982 81.9001ZM55.7408 81.9001C55.7408 96.3481 67.4532 108.06 81.9011 108.06C96.3491 108.06 108.061 96.3481 108.061 81.9001C108.061 67.4522 96.3491 55.7398 81.9011 55.7398C67.4532 55.7398 55.7408 67.4522 55.7408 81.9001Z" fill="#EDEBF0"/>
<path d="M69.859 51.5837C68.5419 48.2678 70.1601 44.4543 73.6476 43.7008C78.2687 42.7024 83.0507 42.5469 87.7603 43.2611C94.6084 44.2995 101.057 47.1393 106.447 51.4896C111.837 55.8399 115.974 61.5444 118.434 68.0191C120.894 74.4938 121.589 81.5061 120.448 88.3378C119.307 95.1695 116.371 101.575 111.94 106.899C107.51 112.223 101.744 116.274 95.2331 118.637C88.7222 120.999 81.7004 121.589 74.8866 120.346C70.2004 119.491 65.7285 117.79 61.6826 115.344C58.6293 113.499 58.338 109.366 60.6612 106.658C62.9843 103.95 67.0442 103.726 70.2379 105.317C72.4304 106.409 74.775 107.192 77.2056 107.636C81.7668 108.468 86.4671 108.073 90.8254 106.491C95.1837 104.91 99.0433 102.198 102.009 98.6342C104.975 95.0705 106.94 90.7825 107.704 86.2094C108.468 81.6363 108.002 76.9424 106.356 72.6083C104.709 68.2742 101.94 64.4557 98.332 61.5436C94.7242 58.6315 90.4072 56.7306 85.8232 56.0355C83.3804 55.6651 80.9084 55.6442 78.48 55.9645C74.9428 56.4311 71.1762 54.8995 69.859 51.5837Z" fill="#00C1FF"/>
<defs>
<linearGradient id="paint0_linear_575_15141" x1="64.593" y1="17.3075" x2="99.2083" y2="146.493" gradientUnits="userSpaceOnUse">
<stop stop-color="#00C1FF"/>
<stop offset="0.921875" stop-color="#01358C"/>
</linearGradient>
</defs>
</svg>
