<svg width="77" height="77" viewBox="0 0 77 77" fill="none" xmlns="http://www.w3.org/2000/svg">
<path d="M30.4766 29.9178V47.0824C30.4766 48.3122 31.038 49.248 32.1609 49.8897C33.2839 50.5313 34.38 50.4779 35.4495 49.7292L48.7641 41.2272C49.78 40.5855 50.288 39.6765 50.288 38.5001C50.288 37.3237 49.78 36.4147 48.7641 35.773L35.4495 27.2709C34.38 26.5223 33.2839 26.4688 32.1609 27.1105C31.038 27.7522 30.4766 28.6879 30.4766 29.9178ZM38.4974 70.5834C34.0592 70.5834 29.8884 69.7407 25.9849 68.0552C22.0814 66.3698 18.6859 64.0844 15.7984 61.199C12.9109 58.3115 10.6255 54.916 8.94223 51.0126C7.25892 47.1091 6.4162 42.9383 6.41406 38.5001C6.41406 34.0619 7.25679 29.8911 8.94223 25.9876C10.6277 22.0841 12.9131 18.6886 15.7984 15.8011C18.6859 12.9136 22.0814 10.6282 25.9849 8.94492C29.8884 7.26161 34.0592 6.41889 38.4974 6.41675C42.9356 6.41675 47.1064 7.25947 51.0099 8.94492C54.9134 10.6304 58.3089 12.9158 61.1964 15.8011C64.0839 18.6886 66.3703 22.0841 68.0558 25.9876C69.7412 29.8911 70.5829 34.0619 70.5807 38.5001C70.5807 42.9383 69.738 47.1091 68.0526 51.0126C66.3671 54.916 64.0817 58.3115 61.1964 61.199C58.3089 64.0865 54.9134 66.373 51.0099 68.0585C47.1064 69.7439 42.9356 70.5855 38.4974 70.5834Z" fill="#30A5FF"/>
</svg>
