<svg width="314" height="17" viewBox="0 0 314 17" fill="none" xmlns="http://www.w3.org/2000/svg">
<path d="M218.296 16C182.435 11.3358 142.403 13.8666 106.119 14.295C95.6861 14.4183 85.0117 15.2404 74.5886 14.8883C73.2292 14.8426 67.2981 14.6711 66.1855 13.7544C66.0402 13.6351 70.6652 13.1648 72.9122 12.9636C77.2811 12.5723 81.6481 12.2837 86.0135 11.8705C97.4901 10.7848 109.167 10.2551 120.745 9.76706C150.463 8.51541 203.628 4.65814 232.673 10.0978C234.112 10.3672 229.663 10.0514 228.158 10.0264C225.685 9.98556 223.213 9.92653 220.74 9.87924C212.673 9.72564 204.538 9.45244 196.47 9.4954C170.47 9.63293 144.378 8.97217 118.384 9.564C110.563 9.74233 102.766 10.1126 94.9414 10.2557C90.4088 10.3385 90.612 10.4087 85.9275 10.3119C83.8965 10.2699 78.2646 10.6417 79.871 9.88418C82.7001 8.5497 91.5427 8.88349 94.9627 8.61122C110.578 7.36945 126.155 5.74784 141.85 4.87663C182.094 2.6428 223.063 2.63755 263.399 3.57212C279.899 3.95442 296.57 2.47562 313 3.67041C273.134 0.53818 231.696 0.9829 191.612 1.07345C146.481 1.17544 101.4 1.18224 56.268 1.76078C37.7396 1.99813 19.5848 4.14474 1 3.98805" stroke="#CFF80B" stroke-width="2" stroke-miterlimit="1.5" stroke-linecap="round" stroke-linejoin="round"/>
</svg>
