<svg width="60" height="60" viewBox="0 0 60 60" fill="none" xmlns="http://www.w3.org/2000/svg">
<path d="M29.9977 10.5012L2.63281 20.7633L29.9977 34.4458L43.0313 27.929L30.8043 24.1907C30.5525 24.3115 30.277 24.3744 29.9977 24.375C29.5005 24.375 29.0235 24.1775 28.6719 23.8259C28.3203 23.4742 28.1227 22.9973 28.1227 22.5C28.1227 22.0028 28.3203 21.5259 28.6719 21.1742C29.0235 20.8226 29.5005 20.625 29.9977 20.625L29.6877 21.6331L31.86 22.3014C31.8603 22.3036 31.8606 22.3058 31.8609 22.308L35.0664 23.2883L53.318 28.9038V30.3271C53.0656 30.4989 52.8589 30.7297 52.716 30.9994C52.573 31.2692 52.4981 31.5698 52.4977 31.8752C52.4981 32.1875 52.5764 32.4948 52.7257 32.7691C52.8749 33.0435 53.0904 33.2762 53.3524 33.4462C52.4989 36.6718 52.4977 43.9902 52.4977 46.8751C54.3727 48.0932 54.3727 48.1377 56.2477 46.8751C56.2477 43.9906 56.2468 36.6735 55.3934 33.4472C55.6556 33.2771 55.871 33.0442 56.0202 32.7696C56.1694 32.495 56.2476 32.1875 56.2477 31.875C56.2477 31.5694 56.1729 31.2684 56.03 30.9982C55.887 30.7281 55.6801 30.4969 55.4274 30.325V27.3461L48.4754 25.2071L57.3627 20.7633L29.9977 10.5012ZM14.0161 29.1797L12.4782 38.4071C15.5456 38.8082 19.2148 40.5911 22.588 42.6993C24.5063 43.8984 26.3032 45.2145 27.7625 46.4915C28.6545 47.272 29.4004 48.0208 29.9977 48.7575C30.595 48.0207 31.3409 47.272 32.233 46.4915C33.6923 45.2145 35.489 43.8984 37.4075 42.6993C40.7806 40.5911 44.4499 38.8082 47.5173 38.4071L45.9792 29.1797H45.2468L29.9977 36.8043L14.7485 29.1797H14.0161Z" fill="#00C1FF"/>
</svg>
