<svg width="52" height="52" viewBox="0 0 52 52" fill="none" xmlns="http://www.w3.org/2000/svg">
<path d="M25.997 45.8095C36.9375 45.8095 45.8065 36.9405 45.8065 26C45.8065 15.0595 36.9375 6.19043 25.997 6.19043C15.0565 6.19043 6.1875 15.0595 6.1875 26C6.1875 36.9405 15.0565 45.8095 25.997 45.8095Z" stroke="#00C1FF" stroke-width="3" stroke-linecap="round" stroke-linejoin="round"/>
<path d="M25.9985 35.9047C31.4688 35.9047 35.9033 31.4702 35.9033 26C35.9033 20.5297 31.4688 16.0952 25.9985 16.0952C20.5283 16.0952 16.0938 20.5297 16.0938 26C16.0938 31.4702 20.5283 35.9047 25.9985 35.9047Z" stroke="#00C1FF" stroke-width="3" stroke-linecap="round" stroke-linejoin="round"/>
<path d="M33.4226 18.5713L39.6131 12.3809M33.4226 33.4285L39.6131 39.619M18.5655 33.4285L12.375 39.619M18.5655 18.5713L12.375 12.3809" stroke="#00C1FF" stroke-width="3" stroke-linecap="round" stroke-linejoin="round"/>
</svg>
