<svg width="36" height="36" viewBox="0 0 36 36" fill="none" xmlns="http://www.w3.org/2000/svg">
<path d="M19.1213 4.125V6.75H22.0838C22.6103 6.75 23.1248 6.909 23.5598 7.2045L26.1053 8.9355C26.1668 8.9775 26.2403 9 26.3153 9H32.4683C32.7667 9 33.0528 9.11853 33.2638 9.3295C33.4748 9.54048 33.5933 9.82663 33.5933 10.125C33.5933 10.4234 33.4748 10.7095 33.2638 10.9205C33.0528 11.1315 32.7667 11.25 32.4683 11.25H30.1013L35.1503 22.77C35.2516 23.0003 35.2726 23.2579 35.2101 23.5016C35.1475 23.7453 35.005 23.961 34.8053 24.114C34.6553 24.225 34.5008 24.3285 34.3403 24.423C33.9598 24.65 33.5639 24.85 33.1553 25.0215C31.7985 25.5889 30.342 25.8791 28.8713 25.875C27.4013 25.8796 25.9452 25.5899 24.5888 25.023C24.18 24.8515 23.784 24.651 23.4038 24.423C23.2446 24.3309 23.0909 24.2297 22.9433 24.12L22.9358 24.114C22.7361 23.961 22.5936 23.7453 22.531 23.5016C22.4685 23.2579 22.4895 23.0003 22.5908 22.77L27.6428 11.25H26.3138C25.7873 11.25 25.2728 11.091 24.8378 10.7955L22.2923 9.0645C22.2305 9.02218 22.1572 8.99968 22.0823 9H19.1213V30.75H25.8518C26.1502 30.75 26.4363 30.8685 26.6473 31.0795C26.8583 31.2905 26.9768 31.5766 26.9768 31.875C26.9768 32.1734 26.8583 32.4595 26.6473 32.6705C26.4363 32.8815 26.1502 33 25.8518 33H10.1408C9.84245 33 9.5563 32.8815 9.34532 32.6705C9.13434 32.4595 9.01582 32.1734 9.01582 31.875C9.01582 31.5766 9.13434 31.2905 9.34532 31.0795C9.5563 30.8685 9.84245 30.75 10.1408 30.75H16.8713V9H13.9088C13.8339 8.99996 13.7608 9.02244 13.6988 9.0645L11.1548 10.7955C10.7198 11.091 10.2053 11.25 9.67882 11.25H8.34982L13.4018 22.77C13.4996 22.9938 13.5219 23.2433 13.4653 23.4809C13.4088 23.7185 13.2764 23.9313 13.0883 24.087C12.9683 24.1845 12.8483 24.276 12.6233 24.4215C12.244 24.6672 11.8469 24.8843 11.4353 25.071C10.0805 25.6865 8.60933 26.0036 7.12132 26.001C5.63324 26.0041 4.16193 25.687 2.80732 25.071C2.39576 24.8843 1.99867 24.6672 1.61932 24.4215C1.4589 24.3195 1.30417 24.2088 1.15582 24.09C0.969184 23.9325 0.837905 23.7194 0.781219 23.4818C0.724532 23.2443 0.745419 22.9948 0.840817 22.77L5.89132 11.25H3.52582C3.22745 11.25 2.9413 11.1315 2.73032 10.9205C2.51934 10.7095 2.40082 10.4234 2.40082 10.125C2.40082 9.82663 2.51934 9.54048 2.73032 9.3295C2.9413 9.11853 3.22745 9 3.52582 9H9.67882C9.75382 9 9.82732 8.9775 9.89032 8.9355L12.4328 7.2045C12.8678 6.9075 13.3838 6.75 13.9103 6.75H16.8713V4.125C16.8713 3.82663 16.9898 3.54048 17.2008 3.3295C17.4118 3.11853 17.6979 3 17.9963 3C18.2947 3 18.5808 3.11853 18.7918 3.3295C19.0028 3.54048 19.1213 3.82663 19.1213 4.125ZM3.28582 22.797C4.46638 23.4255 5.78389 23.7527 7.12132 23.7495C8.45875 23.7527 9.77625 23.4255 10.9568 22.797L7.12132 14.052L3.28582 22.797ZM25.0508 22.761C25.1738 22.821 25.3118 22.8855 25.4633 22.95C26.2583 23.2845 27.4208 23.625 28.8713 23.625C30.1937 23.6287 31.4997 23.3333 32.6918 22.761L28.8713 14.0505L25.0508 22.761Z" fill="#F19305"/>
</svg>
