<svg width="36" height="36" viewBox="0 0 36 36" fill="none" xmlns="http://www.w3.org/2000/svg">
<g clip-path="url(#clip0_575_15190)">
<path d="M33.4887 26.28C33.4183 26.0306 33.2539 25.8182 33.0301 25.6876C32.8062 25.557 32.5404 25.5185 32.2887 25.58L29.7987 26.25C31.1612 24.2415 31.9874 21.9179 32.1987 19.5C32.4029 17.2379 32.0721 14.9595 31.2331 12.8488C30.394 10.7382 29.0702 8.8545 27.3687 7.35002C27.172 7.18733 26.9205 7.10602 26.6658 7.12276C26.4111 7.13949 26.1724 7.253 25.9987 7.44002C25.8239 7.63904 25.7352 7.89928 25.752 8.16363C25.7689 8.42798 25.89 8.67484 26.0887 8.85002C27.5549 10.1443 28.6956 11.7657 29.4184 13.583C30.1411 15.4003 30.4256 17.3623 30.2487 19.31C30.0774 21.3615 29.3893 23.3363 28.2487 25.05L27.9987 22.54C28.0175 22.3923 28.0031 22.2422 27.9566 22.1008C27.91 21.9593 27.8325 21.8301 27.7296 21.7224C27.6267 21.6148 27.501 21.5315 27.3618 21.4786C27.2226 21.4257 27.0733 21.4046 26.9249 21.4168C26.7765 21.4289 26.6327 21.4741 26.504 21.549C26.3752 21.6238 26.2649 21.7265 26.1809 21.8495C26.0969 21.9725 26.0414 22.1127 26.0186 22.2598C25.9957 22.4069 26.006 22.5574 26.0487 22.7L26.5487 29.14L32.7987 27.48C33.0462 27.4076 33.2563 27.2423 33.3848 27.0187C33.5134 26.7951 33.5506 26.5304 33.4887 26.28Z" fill="#5956E8"/>
<path d="M4.31246 17.08C4.44537 17.1655 4.59571 17.2201 4.75246 17.24C5.01344 17.2742 5.2774 17.2042 5.48707 17.0451C5.69674 16.8859 5.83522 16.6506 5.87246 16.39C6.28566 13.3391 7.83612 10.557 10.2134 8.60069C12.5906 6.64438 15.6191 5.65833 18.6925 5.83999L16.4525 7.36999C16.294 7.48939 16.1746 7.65325 16.1095 7.8407C16.0444 8.02816 16.0366 8.23074 16.087 8.42267C16.1374 8.61459 16.2437 8.78719 16.3925 8.91849C16.5413 9.04979 16.7258 9.13386 16.9225 9.15999C17.1478 9.18059 17.3734 9.12418 17.5625 8.99999L22.8925 5.33999L18.3325 0.759994C18.2513 0.635655 18.1435 0.530946 18.0168 0.453468C17.8902 0.375991 17.7479 0.327688 17.6002 0.312068C17.4526 0.296448 17.3033 0.313902 17.1632 0.363163C17.0232 0.412425 16.8958 0.492257 16.7905 0.596864C16.6851 0.701471 16.6044 0.828228 16.5541 0.967932C16.5038 1.10764 16.4853 1.25678 16.4998 1.40454C16.5144 1.5523 16.5617 1.69496 16.6382 1.82217C16.7148 1.94939 16.8187 2.05795 16.9425 2.13999L18.6425 3.83999C15.0933 3.67029 11.6095 4.83736 8.87874 7.1108C6.14802 9.38425 4.36885 12.5988 3.89246 16.12C3.86682 16.3032 3.89251 16.4899 3.96666 16.6594C4.0408 16.8289 4.16051 16.9745 4.31246 17.08Z" fill="#5956E8"/>
<path d="M21.7316 29.93C20.1701 30.4288 18.5229 30.6024 16.8916 30.44C14.905 30.2453 12.9956 29.57 11.3283 28.4723C9.66096 27.3747 8.28584 25.8878 7.32162 24.14L9.81162 25.07C10.0411 25.1098 10.2774 25.0682 10.4795 24.9525C10.6817 24.8367 10.837 24.654 10.9188 24.4358C11.0006 24.2177 11.0037 23.9779 10.9275 23.7577C10.8514 23.5376 10.7007 23.3509 10.5016 23.23L5.91162 21.53L4.44162 21L3.33162 27.35C3.29314 27.6037 3.35369 27.8626 3.50074 28.0729C3.6478 28.2833 3.87009 28.429 4.12162 28.48H4.29162C4.52698 28.4843 4.75631 28.4054 4.93923 28.2572C5.12215 28.1091 5.24693 27.9011 5.29162 27.67L5.71162 25.27C6.84265 27.2513 8.43129 28.9332 10.3449 30.1753C12.2585 31.4174 14.4415 32.1836 16.7116 32.41C18.6096 32.5981 20.5259 32.3939 22.3416 31.81C22.5728 31.7143 22.7597 31.5353 22.8654 31.3085C22.9711 31.0817 22.988 30.8236 22.9126 30.5849C22.8373 30.3463 22.6752 30.1446 22.4584 30.0197C22.2416 29.8947 21.9859 29.8556 21.7416 29.91L21.7316 29.93Z" fill="#5956E8"/>
<path d="M22 13H14C13.7348 13 13.4804 13.1054 13.2929 13.2929C13.1054 13.4804 13 13.7348 13 14V22C13 22.2652 13.1054 22.5196 13.2929 22.7071C13.4804 22.8946 13.7348 23 14 23H22C22.2652 23 22.5196 22.8946 22.7071 22.7071C22.8946 22.5196 23 22.2652 23 22V14C23 13.7348 22.8946 13.4804 22.7071 13.2929C22.5196 13.1054 22.2652 13 22 13ZM21 21H15V15H21V21Z" fill="#5956E8"/>
</g>
<defs>
<clipPath id="clip0_575_15190">
<rect width="36" height="36" fill="white"/>
</clipPath>
</defs>
</svg>
