<svg width="36" height="36" viewBox="0 0 36 36" fill="none" xmlns="http://www.w3.org/2000/svg">
<path d="M22.9977 4.62769L16.1607 9.01617L16.8537 9.39565L22.9364 5.49119L33.2537 11.3353L27.3359 15.1338L27.6242 15.2916V15.7731L32.2594 12.7977L33.2322 13.3488L27.6241 16.9485V17.7727L32.1686 14.8557L33.2322 15.4583L27.6241 19.0579V19.8822L32.1686 16.9651L33.2322 17.5677L27.6241 21.1674V21.9916L34.6577 17.4769L32.9119 16.4881L34.6576 15.3676L32.9119 14.3787L34.6575 13.2581L33.0026 12.3206L34.679 11.2445L22.9976 4.62769H22.9977ZM25.1821 7.77347C23.7028 8.51569 21.7325 8.64126 20.3453 8.08165L17.6333 9.82237L26.5562 14.707L29.1283 13.056C28.1151 12.2562 28.1995 11.0627 29.3352 10.1261L25.182 7.77347H25.1821ZM16 10.3711L11.0297 13.6121L20.5648 19.1011L20.6583 19.0413C20.8341 18.9281 21.0823 18.7678 21.3784 18.5763C21.9705 18.1936 22.754 17.6862 23.5352 17.1799C24.6603 16.4508 25.2401 16.0746 25.7793 15.7249L16 10.3711ZM24.1187 10.4534C24.1188 10.4534 24.1189 10.4534 24.1189 10.4534C24.3438 10.4547 24.55 10.5029 24.7039 10.5901C24.7935 10.6409 24.863 10.7034 24.9085 10.7743C24.9539 10.8452 24.9743 10.9229 24.9687 11.0031C24.963 11.0833 24.9313 11.1644 24.8754 11.2417C24.8194 11.319 24.7404 11.391 24.6428 11.4537C24.5452 11.5163 24.4309 11.5684 24.3064 11.6069C24.1819 11.6453 24.0497 11.6695 23.9174 11.6779C23.785 11.6863 23.655 11.6789 23.5349 11.656C23.4148 11.633 23.3069 11.5951 23.2173 11.5444C23.0364 11.4419 22.9412 11.2934 22.9527 11.1315C22.9642 10.9695 23.0814 10.8075 23.2785 10.681C23.3904 10.6091 23.5241 10.5513 23.6696 10.5119C23.8151 10.4725 23.9686 10.4525 24.1187 10.4534ZM8.76086 13.7661L1.34957 18.5231L3.00452 19.4606L1.32812 20.5367L3.07384 21.5255L1.32812 22.6462L3.07384 23.635L1.32812 24.7556L13.0095 31.3725L20.0621 26.8453V26.0212L13.0707 30.5089L2.7535 24.6647L3.7558 24.0213L13.0095 29.2629L20.0621 24.7359V23.9119L13.0707 28.3995L2.7535 22.5553L3.7558 21.912L13.0095 27.1536L20.0621 22.6266V21.8025L13.0707 26.2901L2.7535 20.446L3.68655 19.8469L13.0311 25.14L20.0621 20.6268V20.2717L19.6768 20.05L13.092 24.2764L2.77509 18.4323L9.4379 14.1557L8.76079 13.7659L8.76086 13.7661ZM10.1995 14.5944L6.90039 16.7119C7.91359 17.5116 7.82922 18.7051 6.69353 19.6418L10.8467 21.9944C12.3259 21.2522 14.2961 21.1267 15.6833 21.6862L18.9152 19.6117L10.1993 14.5943L10.1995 14.5944ZM26.3585 16.8578C25.7929 17.2246 25.2941 17.5484 24.2236 18.2421C23.5045 18.7082 22.7852 19.174 22.0657 19.6394C21.7692 19.831 21.5204 19.9917 21.343 20.1057C21.3367 20.1099 21.3341 20.1113 21.3279 20.1153V26.1569L26.3585 22.7757L26.3585 16.8578ZM12.2264 18.0868C12.4512 18.0882 12.6574 18.1365 12.8114 18.2237C12.9922 18.3262 13.0874 18.4747 13.076 18.6367C13.0645 18.7986 12.9473 18.9606 12.7502 19.0872C12.5531 19.2137 12.2922 19.2943 12.0249 19.3113C11.7576 19.3283 11.5058 19.2803 11.3249 19.1779C11.144 19.0754 11.0489 18.9269 11.0603 18.7649C11.0718 18.603 11.189 18.441 11.3861 18.3144C11.4981 18.2426 11.6318 18.1848 11.7773 18.1454C11.9228 18.106 12.0763 18.086 12.2264 18.0869V18.0868Z" fill="#DF3285"/>
</svg>
