<svg width="36" height="36" viewBox="0 0 36 36" fill="none" xmlns="http://www.w3.org/2000/svg">
<path d="M29.25 15.75C29.8468 15.75 30.419 15.5129 30.841 15.091C31.263 14.669 31.5 14.0967 31.5 13.5V6.75C31.5 6.15326 31.263 5.58097 30.841 5.15901C30.419 4.73705 29.8468 4.5 29.25 4.5H22.5C21.9033 4.5 21.331 4.73705 20.909 5.15901C20.4871 5.58097 20.25 6.15326 20.25 6.75V13.5C20.25 14.0967 20.4871 14.669 20.909 15.091C21.331 15.5129 21.9033 15.75 22.5 15.75H24.75V20.3625C23.669 20.583 22.6767 21.1165 21.8966 21.8966C21.1165 22.6767 20.583 23.669 20.3625 24.75H15.75V22.5C15.75 21.9033 15.513 21.331 15.091 20.909C14.669 20.4871 14.0968 20.25 13.5 20.25H11.25V15.6375C12.6158 15.3587 13.8294 14.5827 14.6556 13.46C15.4818 12.3372 15.8616 10.9477 15.7215 9.56079C15.5814 8.17388 14.9313 6.88841 13.8973 5.95357C12.8633 5.01874 11.519 4.50115 10.125 4.50115C8.73105 4.50115 7.38674 5.01874 6.35272 5.95357C5.31869 6.88841 4.6686 8.17388 4.5285 9.56079C4.38839 10.9477 4.76825 12.3372 5.59442 13.46C6.42059 14.5827 7.63422 15.3587 9.00001 15.6375V20.25H6.75001C6.15328 20.25 5.58098 20.4871 5.15902 20.909C4.73707 21.331 4.50001 21.9033 4.50001 22.5V29.25C4.50001 29.8467 4.73707 30.419 5.15902 30.841C5.58098 31.2629 6.15328 31.5 6.75001 31.5H13.5C14.0968 31.5 14.669 31.2629 15.091 30.841C15.513 30.419 15.75 29.8467 15.75 29.25V27H20.3625C20.566 27.9955 21.0353 28.9173 21.7207 29.6675C22.406 30.4177 23.2818 30.9682 24.2549 31.2606C25.228 31.553 26.2622 31.5764 27.2475 31.3282C28.2328 31.08 29.1326 30.5695 29.851 29.851C30.5695 29.1325 31.08 28.2328 31.3282 27.2475C31.5764 26.2622 31.553 25.228 31.2606 24.2549C30.9682 23.2818 30.4177 22.406 29.6675 21.7207C28.9174 21.0353 27.9955 20.566 27 20.3625V15.75H29.25ZM6.75001 10.125C6.75001 9.45749 6.94795 8.80497 7.3188 8.24995C7.68965 7.69493 8.21676 7.26235 8.83346 7.00691C9.45016 6.75146 10.1288 6.68462 10.7834 6.81485C11.4381 6.94508 12.0395 7.26651 12.5115 7.73851C12.9835 8.21052 13.3049 8.81188 13.4352 9.46657C13.5654 10.1213 13.4986 10.7999 13.2431 11.4166C12.9877 12.0333 12.5551 12.5604 12.0001 12.9312C11.445 13.3021 10.7925 13.5 10.125 13.5C9.22991 13.5 8.37146 13.1444 7.73853 12.5115C7.10559 11.8786 6.75001 11.0201 6.75001 10.125ZM13.5 29.25H6.75001V22.5H13.5V29.25ZM29.25 25.875C29.25 26.5425 29.0521 27.195 28.6812 27.75C28.3104 28.3051 27.7833 28.7376 27.1666 28.9931C26.5499 29.2485 25.8713 29.3154 25.2166 29.1852C24.5619 29.0549 23.9605 28.7335 23.4885 28.2615C23.0165 27.7895 22.6951 27.1881 22.5649 26.5334C22.4346 25.8787 22.5015 25.2001 22.7569 24.5834C23.0124 23.9667 23.4449 23.4396 24 23.0688C24.555 22.6979 25.2075 22.5 25.875 22.5C26.7701 22.5 27.6286 22.8556 28.2615 23.4885C28.8944 24.1214 29.25 24.9799 29.25 25.875ZM22.5 6.75H29.25V13.5H22.5V6.75Z" fill="#33CA30"/>
</svg>
