<svg width="508" height="588" viewBox="0 0 508 588" fill="none" xmlns="http://www.w3.org/2000/svg">
<path d="M234.278 508.875L170.271 531.853M234.278 508.875L234.278 2.00001M234.278 508.875L307.746 519.563M234.278 508.875L507 418.401M507 62.8102L442.252 48.3729M507 62.8102L507 157.363M507 62.8102L7.05506 214.465M234.278 2.00001L161.552 21.0396M234.278 2.00001L307.746 18.3815M106.265 554.83L19.4394 586L16.2877 491.448M106.265 554.83L88.8258 40.0792M106.265 554.83L170.271 531.853M88.8258 40.0792L1.99998 62.8102L4.52752 138.637M88.8258 40.0792L161.552 21.0396M161.552 21.0396L170.271 531.853M307.746 18.3815L307.746 519.563M307.746 18.3815L377.503 33.9357M307.746 519.563L377.503 529.711M377.503 529.711L377.503 33.9357M377.503 529.711L442.252 539.13M377.503 529.711L507 483.476M377.503 33.9357L442.252 48.3729M377.503 33.9357L4.52752 138.637M442.252 48.3729L442.252 539.13M442.252 539.13L507 548.55L507 483.476M16.2877 491.448L507 330.152M16.2877 491.448L13.6427 412.098M507 330.152L507 241.533M507 330.152L507 418.401M13.6427 412.098L507 241.533M13.6427 412.098L10.4045 314.95M507 241.533L507 157.363M10.4045 314.95L507 157.363M10.4045 314.95L7.05506 214.465M7.05506 214.465L4.52752 138.637M507 418.401L507 483.476" stroke="url(#paint0_linear_612_10935)" stroke-width="2"/>
<defs>
<linearGradient id="paint0_linear_612_10935" x1="482.268" y1="96.8426" x2="301.233" y2="329.175" gradientUnits="userSpaceOnUse">
<stop stop-color="#CFDEEC"/>
<stop offset="1" stop-color="#B0C2D5" stop-opacity="0"/>
</linearGradient>
</defs>
</svg>
