<svg width="36" height="36" viewBox="0 0 36 36" fill="none" xmlns="http://www.w3.org/2000/svg">
<path d="M18 11.9999H6C5.20435 11.9999 4.44129 12.3159 3.87868 12.8786C3.31607 13.4412 3 14.2042 3 14.9999V20.9999C3 21.7955 3.31607 22.5586 3.87868 23.1212C4.44129 23.6838 5.20435 23.9999 6 23.9999H7.5V29.9999C7.5 30.3977 7.65804 30.7792 7.93934 31.0605C8.22064 31.3418 8.60218 31.4999 9 31.4999H12C12.3978 31.4999 12.7794 31.3418 13.0607 31.0605C13.342 30.7792 13.5 30.3977 13.5 29.9999V23.9999H18L25.5 29.9999V5.99988L18 11.9999ZM22.5 23.3999L19.5 20.9999H6V14.9999H19.5L22.5 12.5999V23.3999ZM32.25 17.9999C32.25 20.5649 30.81 22.8899 28.5 23.9999V11.9999C30.795 13.1249 32.25 15.4499 32.25 17.9999Z" fill="#DC04C6"/>
</svg>
