<svg width="687" height="539" viewBox="0 0 687 539" fill="none" xmlns="http://www.w3.org/2000/svg">
<g filter="url(#filter0_f_575_15497)">
<path fill-rule="evenodd" clip-rule="evenodd" d="M452.339 81.2417C521.27 102.831 595.212 150.303 609.828 213.668C623.774 274.131 552.743 309.846 515.861 356.631C491.526 387.499 471.877 419.823 433.913 436.819C389.712 456.606 340.362 472.777 289.585 457.931C232.242 441.165 186.384 401.203 153.094 354.714C111.548 296.694 55.2463 227.203 83.1831 169.687C110.999 112.42 204.829 124.434 272.865 108.134C333.215 93.6745 389.446 61.544 452.339 81.2417Z" fill="url(#paint0_linear_575_15497)" fill-opacity="0.87"/>
</g>
<defs>
<filter id="filter0_f_575_15497" x="0.703125" y="0.0253906" width="685.914" height="538.687" filterUnits="userSpaceOnUse" color-interpolation-filters="sRGB">
<feFlood flood-opacity="0" result="BackgroundImageFix"/>
<feBlend mode="normal" in="SourceGraphic" in2="BackgroundImageFix" result="shape"/>
<feGaussianBlur stdDeviation="37.5" result="effect1_foregroundBlur_575_15497"/>
</filter>
<linearGradient id="paint0_linear_575_15497" x1="-80.0035" y1="-120.5" x2="515.496" y2="543" gradientUnits="userSpaceOnUse">
<stop stop-color="#BE62DE"/>
<stop offset="1" stop-color="#2E5195"/>
</linearGradient>
</defs>
</svg>
