<svg width="107" height="107" viewBox="0 0 107 107" fill="none" xmlns="http://www.w3.org/2000/svg">
<circle cx="53.5" cy="53.5001" r="53.5" fill="#5A31D0"/>
<circle cx="53.5033" cy="53.5001" r="43.6049" fill="#5A31D0" stroke="white" stroke-dasharray="7 7"/>
<circle cx="53.4984" cy="53.5001" r="32.1" fill="white"/>
<path d="M67.6849 46.6984C66.9434 46.2944 66.1784 45.8661 65.8053 45.4317C65.4321 44.9974 65.2342 44.2647 65.0015 43.5254C64.5884 42.1693 64.1026 40.6207 62.6084 39.8304C61.1141 39.0402 59.407 39.4291 57.9183 39.7795C57.1031 39.9645 56.2725 40.1534 55.7141 40.0951C55.1557 40.0368 54.3295 39.6235 53.5768 39.2373C52.25 38.5712 50.7334 37.8165 49.1416 38.2072C47.5499 38.5979 46.6484 39.9461 45.863 41.1305C45.422 41.8098 44.9544 42.5105 44.4802 42.8523C44.0061 43.1941 43.2061 43.3754 42.399 43.5885C40.9185 43.9669 39.2279 44.4119 38.3652 45.7806C37.5025 47.1494 37.9271 48.713 38.3095 50.0766C38.5116 50.8234 38.7177 51.5842 38.6541 52.0957C38.5905 52.6071 38.1393 53.364 37.7177 54.0535C36.9905 55.2687 36.1666 56.658 36.5931 58.116C37.0196 59.574 38.4914 60.3998 39.7845 61.1192C40.5261 61.5232 41.2911 61.9515 41.6642 62.3858C42.0373 62.8201 42.2353 63.5529 42.4679 64.2922C42.881 65.6483 43.3669 67.1969 44.8611 67.9871C46.3554 68.7774 48.0624 68.3884 49.5511 68.0381C50.3664 67.853 51.197 67.6642 51.7554 67.7225C52.3137 67.7808 53.14 68.194 53.8927 68.5802C55.2194 69.2463 56.7361 70.001 58.3278 69.6103C59.9196 69.2197 60.8211 67.8715 61.6065 66.687C62.0475 66.0078 62.5151 65.307 62.9893 64.9652C63.4634 64.6235 64.2634 64.4422 65.0704 64.229C66.5509 63.8506 68.2416 63.4056 69.1043 62.0369C69.967 60.6682 69.5424 59.1045 69.1599 57.7409C68.9579 56.9941 68.7517 56.2333 68.8154 55.7219C68.879 55.2104 69.3302 54.4536 69.7518 53.7641C70.479 52.5488 71.3029 51.1596 70.8764 49.7015C70.4499 48.2435 68.978 47.4178 67.6849 46.6984ZM60.5644 49.4978L53.8922 59.5499C53.7187 59.8066 53.4441 59.9923 53.1253 60.0687C52.812 60.1467 52.4778 60.1102 52.1933 59.9669L46.5606 57.1421C46.4072 57.0732 46.2705 56.9766 46.1588 56.8582C46.0472 56.7397 45.9628 56.6017 45.9108 56.4526C45.8589 56.3035 45.8403 56.1463 45.8564 55.9905C45.8724 55.8346 45.9227 55.6834 46.0042 55.5458C46.0856 55.4082 46.1967 55.2871 46.3305 55.1898C46.4644 55.0925 46.6184 55.021 46.7832 54.9796C46.948 54.9383 47.1202 54.9278 47.2896 54.949C47.4589 54.9701 47.6218 55.0224 47.7685 55.1027L52.342 57.391L58.4051 48.2848C58.5875 48.0361 58.8678 47.8616 59.1874 47.7979C59.507 47.7341 59.8411 47.7859 60.12 47.9426C60.3988 48.0992 60.6007 48.3485 60.6835 48.6384C60.7664 48.9282 60.7237 49.2361 60.5644 49.4978Z" fill="#8B1EE1"/>
</svg>
