<svg width="72" height="72" viewBox="0 0 72 72" fill="none" xmlns="http://www.w3.org/2000/svg">
<g clip-path="url(#clip0_575_15267)">
<path d="M33.5452 26.808L14.7712 31.8385C13.5264 32.172 12.4651 32.9864 11.8208 34.1024C11.1764 35.2185 11.0018 36.5448 11.3354 37.7896L13.8506 47.1766C14.1841 48.4214 14.9985 49.4827 16.1145 50.127C17.2306 50.7714 18.5569 50.946 19.8017 50.6124L22.1484 49.9836L24.6637 59.3706C24.8304 59.993 25.2376 60.5237 25.7957 60.8458C26.3537 61.168 27.0168 61.2553 27.6392 61.0885L32.3327 59.8309C32.9551 59.6642 33.4858 59.257 33.8079 58.699C34.1301 58.1409 34.2174 57.4778 34.0507 56.8554L31.5354 47.4684L38.5757 45.582L52.8246 51.8249L42.7637 14.277L33.5452 26.808ZM45.3644 42.7568L39.6648 40.2597L18.5441 45.9189L16.0288 36.532L37.1496 30.8727L40.837 25.8603L45.3644 42.7568ZM58.3545 30.2213C59.4298 34.2342 58.1515 38.4754 55.0029 41.1803L49.9724 22.4063C54.0345 23.2043 57.2855 26.2318 58.3545 30.2213Z" fill="#31BAD0"/>
</g>
<defs>
<clipPath id="clip0_575_15267">
<rect width="58.3087" height="58.3087" fill="white" transform="translate(0.351562 15.5797) rotate(-15)"/>
</clipPath>
</defs>
</svg>
