<svg width="52" height="52" viewBox="0 0 52 52" fill="none" xmlns="http://www.w3.org/2000/svg">
<path d="M47.2066 3.20664L48.4849 4.48497C50.2464 6.24864 49.9799 9.37514 47.8847 11.4681L21.5229 37.83L12.9819 40.9543C11.9094 41.3486 10.8651 40.8373 10.6527 39.8168C10.581 39.4466 10.6148 39.0637 10.7502 38.7118L13.9352 30.0971L40.2234 3.80681C42.3186 1.71381 45.4451 1.44297 47.2066 3.20664ZM20.3724 5.82831C20.6569 5.82831 20.9387 5.88435 21.2015 5.99323C21.4644 6.10212 21.7033 6.26172 21.9045 6.46291C22.1057 6.6641 22.2653 6.90295 22.3741 7.16583C22.483 7.4287 22.5391 7.71044 22.5391 7.99497C22.5391 8.2795 22.483 8.56125 22.3741 8.82412C22.2653 9.08699 22.1057 9.32584 21.9045 9.52704C21.7033 9.72823 21.4644 9.88783 21.2015 9.99671C20.9387 10.1056 20.6569 10.1616 20.3724 10.1616H11.7057C10.5565 10.1616 9.45426 10.6182 8.6416 11.4308C7.82894 12.2435 7.3724 13.3457 7.3724 14.495V40.495C7.3724 41.6442 7.82894 42.7464 8.6416 43.5591C9.45426 44.3718 10.5565 44.8283 11.7057 44.8283H37.7057C38.855 44.8283 39.9572 44.3718 40.7699 43.5591C41.5825 42.7464 42.0391 41.6442 42.0391 40.495V31.8283C42.0391 31.2537 42.2673 30.7026 42.6737 30.2962C43.08 29.8899 43.6311 29.6616 44.2057 29.6616C44.7804 29.6616 45.3315 29.8899 45.7378 30.2962C46.1441 30.7026 46.3724 31.2537 46.3724 31.8283V40.495C46.3724 42.7935 45.4593 44.9979 43.834 46.6232C42.2087 48.2485 40.0043 49.1616 37.7057 49.1616H11.7057C9.40719 49.1616 7.20279 48.2485 5.57747 46.6232C3.95216 44.9979 3.03906 42.7935 3.03906 40.495V14.495C3.03906 12.1964 3.95216 9.99203 5.57747 8.36671C7.20279 6.7414 9.40719 5.82831 11.7057 5.82831H20.3724Z" fill="#31BAD0"/>
</svg>
