<svg width="58" height="58" viewBox="0 0 58 58" fill="none" xmlns="http://www.w3.org/2000/svg">
<path d="M43.4967 38.0625C42.5203 38.0621 41.5539 38.2597 40.6559 38.6432C39.7579 39.0268 38.947 39.5884 38.2722 40.2941L21.5066 30.8612C21.8313 29.6416 21.8313 28.3583 21.5066 27.1388L38.2722 17.7058C39.493 18.9716 41.1335 19.7488 42.8862 19.8918C44.639 20.0348 46.3837 19.5339 47.7937 18.4829C49.2036 17.4318 50.1819 15.9028 50.5454 14.1822C50.9089 12.4616 50.6325 10.6675 49.7681 9.13601C48.9038 7.60453 47.5107 6.44075 45.8498 5.86268C44.189 5.28462 42.3743 5.33194 40.7459 5.99578C39.1174 6.65961 37.7868 7.89442 37.0035 9.46886C36.2201 11.0433 36.0376 12.8494 36.4903 14.5487L19.7246 23.9816C18.7232 22.9374 17.4322 22.2168 16.0178 21.9123C14.6034 21.6079 13.1302 21.7336 11.7878 22.2732C10.4454 22.8129 9.29522 23.7419 8.48514 24.9407C7.67507 26.1394 7.24219 27.5532 7.24219 29C7.24219 30.4468 7.67507 31.8605 8.48514 33.0593C9.29522 34.258 10.4454 35.187 11.7878 35.7267C13.1302 36.2664 14.6034 36.3921 16.0178 36.0876C17.4322 35.7832 18.7232 35.0625 19.7246 34.0183L36.4903 43.4513C36.1015 44.9147 36.1808 46.4631 36.7169 47.8792C37.253 49.2954 38.219 50.5081 39.4794 51.3473C40.7397 52.1864 42.2313 52.6099 43.7446 52.5583C45.2579 52.5066 46.717 51.9824 47.9173 51.0593C49.1175 50.1362 49.9986 48.8604 50.4369 47.411C50.8752 45.9617 50.8487 44.4114 50.3611 42.9779C49.8735 41.5443 48.9493 40.2995 47.7182 39.4179C46.4871 38.5363 45.0109 38.0623 43.4967 38.0625Z" fill="#31BAD0"/>
</svg>
