<svg width="188" height="23" viewBox="0 0 188 23" fill="none" xmlns="http://www.w3.org/2000/svg">
<path d="M130.458 22C109.224 15.4701 85.5212 19.0133 64.0378 19.613C57.8603 19.7856 51.54 20.9365 45.3685 20.4437C44.5636 20.3797 41.0518 20.1395 40.3931 18.8562C40.307 18.6892 43.0455 18.0307 44.3759 17.749C46.9628 17.2012 49.5484 16.7971 52.1332 16.2186C58.9285 14.6987 65.8426 13.9571 72.6974 13.2739C90.2937 11.5216 121.772 6.1214 138.97 13.7369C139.822 14.1141 137.188 13.6719 136.297 13.6369C134.832 13.5798 133.369 13.4971 131.904 13.4309C127.128 13.2159 122.311 12.8334 117.534 12.8936C102.14 13.0861 86.6907 12.161 71.2999 12.9896C66.6688 13.2393 62.0525 13.7576 57.4194 13.9579C54.7357 14.0739 54.8559 14.1721 52.0823 14.0367C50.8797 13.9778 47.5451 14.4983 48.4962 13.4379C50.1714 11.5696 55.407 12.0369 57.432 11.6557C66.6779 9.91723 75.9009 7.64698 85.194 6.42728C109.022 3.29993 133.28 3.29257 157.163 4.60097C166.932 5.13618 176.803 3.06587 186.531 4.73858C162.927 0.353452 138.392 0.97606 114.658 1.10283C87.9358 1.24561 61.2437 1.25513 34.5209 2.06509C23.5503 2.39739 12.8009 5.40263 1.79688 5.18327" stroke="#CFF80B" stroke-width="2" stroke-miterlimit="1.5" stroke-linecap="round" stroke-linejoin="round"/>
</svg>
